<?xml version="1.0" standalone="no"?>
<!DOCTYPE svg PUBLIC "-//W3C//DTD SVG 20010904//EN"
 "http://www.w3.org/TR/2001/REC-SVG-20010904/DTD/svg10.dtd">
<svg version="1.0" xmlns="http://www.w3.org/2000/svg"
 width="1024.000000pt" height="228.000000pt" viewBox="0 0 1024.000000 228.000000"
 preserveAspectRatio="xMidYMid meet">

<g transform="translate(0.000000,228.000000) scale(0.100000,-0.100000)"
fill="#000000" stroke="none">
<path d="M768 2230 c-194 -31 -343 -101 -480 -228 -151 -141 -243 -321 -268
-531 -45 -370 203 -756 570 -883 197 -68 441 -64 621 11 139 58 279 179 352
302 74 126 117 328 103 482 l-8 77 -389 0 -389 0 0 -110 0 -110 280 0 c154 0
280 -4 280 -8 0 -31 -44 -172 -67 -214 -54 -99 -181 -193 -319 -234 -89 -27
-267 -25 -359 3 -91 29 -181 84 -253 155 -273 271 -232 745 85 961 100 69 194
99 323 105 161 6 283 -30 402 -121 l45 -35 78 78 77 77 -63 52 c-80 64 -201
125 -300 150 -92 23 -242 33 -321 21z"/>
<path d="M2180 1614 c-147 -32 -289 -138 -358 -270 -90 -172 -80 -406 24 -562
65 -99 160 -174 271 -214 81 -30 244 -36 333 -13 150 39 276 140 342 275 160
330 -18 711 -367 785 -86 18 -160 18 -245 -1z m252 -221 c61 -28 124 -92 156
-162 23 -47 27 -70 27 -146 0 -76 -4 -99 -26 -145 -34 -74 -76 -120 -141 -156
-48 -26 -62 -29 -143 -29 -104 0 -148 18 -216 86 -65 65 -93 137 -93 239 1
163 79 281 218 326 55 19 160 12 218 -13z"/>
<path d="M4576 1615 c-182 -46 -343 -207 -391 -390 -8 -33 -15 -98 -15 -145 0
-154 52 -275 165 -386 112 -111 237 -161 380 -152 80 5 178 45 227 92 46 44
51 36 45 -66 -9 -158 -56 -243 -159 -289 -66 -29 -192 -32 -251 -5 -48 21
-110 77 -139 124 -12 21 -23 39 -25 41 -2 3 -181 -67 -193 -76 -13 -11 59
-119 115 -172 124 -120 285 -168 457 -138 205 36 332 152 396 360 13 44 16
139 19 620 l4 567 -110 0 -111 0 0 -45 c0 -26 -5 -45 -11 -45 -6 0 -29 16 -52
35 -82 71 -231 100 -351 70z m249 -219 c108 -50 176 -168 177 -305 0 -93 -14
-151 -53 -213 -56 -88 -134 -128 -249 -128 -128 0 -231 76 -281 208 -30 82
-24 206 15 285 32 66 109 139 169 160 67 24 163 21 222 -7z"/>
<path d="M6138 1614 c-145 -35 -271 -136 -333 -266 -84 -176 -84 -355 -1 -523
62 -126 195 -234 331 -269 73 -19 222 -20 290 -2 91 24 176 75 248 148 l69 70
-92 61 -91 62 -58 -56 c-74 -72 -132 -93 -240 -87 -82 5 -120 20 -176 70 -41
35 -71 86 -58 98 4 4 168 74 364 155 l357 147 -25 61 c-51 126 -143 237 -241
290 -98 53 -230 69 -344 41z m239 -215 c47 -23 102 -85 87 -98 -16 -14 -485
-204 -490 -198 -10 9 15 115 36 156 68 134 242 200 367 140z"/>
<path d="M7788 1610 c-225 -40 -381 -194 -423 -415 -19 -96 -19 -151 0 -239
42 -200 183 -352 371 -400 72 -19 181 -21 256 -5 183 38 338 193 383 380 19
82 19 219 0 293 -33 127 -119 248 -223 314 -96 61 -253 92 -364 72z m220 -190
c69 -30 143 -111 172 -188 96 -255 -56 -522 -300 -526 -91 -1 -158 25 -225 85
-79 73 -108 139 -113 260 -5 111 10 177 57 251 35 56 108 112 171 133 63 21
171 14 238 -15z"/>
<path d="M9625 1609 c-191 -27 -360 -201 -400 -414 -19 -96 -19 -151 0 -240
31 -143 117 -275 225 -345 178 -114 438 -84 557 65 16 19 31 35 36 35 16 0 7
-168 -13 -233 -24 -77 -88 -154 -153 -186 -92 -44 -228 -46 -310 -4 -44 22
-107 83 -127 124 l-19 37 -86 -35 -85 -36 23 -40 c31 -57 109 -140 165 -175
105 -68 271 -93 407 -62 174 39 310 169 362 346 15 52 17 124 21 597 l3 537
-90 0 -91 0 0 -70 c0 -38 -2 -70 -5 -70 -3 0 -21 18 -41 39 -92 102 -232 150
-379 130z m242 -195 c36 -19 72 -48 100 -82 119 -146 108 -404 -23 -536 -152
-152 -408 -107 -504 87 -77 158 -57 345 52 463 71 77 140 105 246 100 56 -2
85 -10 129 -32z"/>
<path d="M8985 1603 c-85 -19 -172 -75 -212 -138 -15 -24 -31 -44 -35 -45 -5
0 -8 36 -8 80 l0 80 -85 0 -85 0 0 -505 0 -505 89 0 90 0 3 328 3 327 27 51
c55 104 156 159 279 152 l61 -3 33 82 33 82 -50 10 c-49 11 -106 13 -143 4z"/>
<path d="M6982 813 c-36 -18 -72 -76 -72 -119 0 -39 38 -100 75 -120 52 -28
121 -15 162 30 32 34 38 56 33 116 -6 84 -114 135 -198 93z"/>
</g>
</svg>
